<svg width="25" height="25" viewBox="0 0 25 25" fill="none" xmlns="http://www.w3.org/2000/svg">
    <path d="M15.1262 19.499C15.1262 19.1899 15.2179 18.8877 15.3896 18.6307C15.5614 18.3736 15.8055 18.1733 16.0911 18.055C16.3767 17.9367 16.691 17.9058 16.9941 17.9661C17.2973 18.0264 17.5758 18.1752 17.7944 18.3938C18.013 18.6124 18.1619 18.8909 18.2222 19.1941C18.2825 19.4973 18.2515 19.8116 18.1332 20.0972C18.0149 20.3828 17.8146 20.6269 17.5576 20.7986C17.3005 20.9704 16.9984 21.062 16.6892 21.062C16.2747 21.062 15.8771 20.8974 15.584 20.6042C15.2909 20.3111 15.1262 19.9136 15.1262 19.499Z" stroke="white" stroke-width="2" stroke-miterlimit="10" stroke-linecap="round" stroke-linejoin="round"/>
    <path d="M6.79004 19.499C6.79004 19.1899 6.88171 18.8877 7.05345 18.6307C7.2252 18.3736 7.4693 18.1733 7.7549 18.055C8.04051 17.9367 8.35477 17.9058 8.65797 17.9661C8.96116 18.0264 9.23966 18.1752 9.45825 18.3938C9.67684 18.6124 9.8257 18.8909 9.88601 19.1941C9.94632 19.4973 9.91536 19.8116 9.79706 20.0972C9.67876 20.3828 9.47843 20.6269 9.2214 20.7986C8.96436 20.9704 8.66217 21.062 8.35304 21.062C7.93851 21.062 7.54095 20.8974 7.24783 20.6042C6.95471 20.3111 6.79004 19.9136 6.79004 19.499Z" stroke="white" stroke-width="2" stroke-miterlimit="10" stroke-linecap="round" stroke-linejoin="round"/>
    <path d="M1.5791 3.34705H4.2361L6.4661 14.716C6.58024 15.3249 6.90253 15.8751 7.37778 16.2725C7.85302 16.6698 8.45165 16.8896 9.0711 16.894H19.2951" stroke="white" stroke-width="2" stroke-miterlimit="10" stroke-linecap="round" stroke-linejoin="round"/>
    <path d="M4.70508 5.43103H21.3791L20.6551 11.131C20.5959 11.5759 20.3765 11.9839 20.0379 12.2785C19.6993 12.5731 19.2649 12.734 18.8161 12.731H6.09408" stroke="white" stroke-width="2" stroke-miterlimit="10" stroke-linecap="round" stroke-linejoin="round"/>
</svg>